<?xml version="1.0" encoding="UTF-8"?>
<svg version="1.1" xmlns="http://www.w3.org/2000/svg" width="150" height="150">
<path d="M0 0 C1.00079086 -0.00671722 2.00158173 -0.01343445 3.03269958 -0.02035522 C6.33329263 -0.03931561 9.63368209 -0.0432585 12.93432617 -0.04541016 C15.23589663 -0.05183956 17.53746628 -0.05856803 19.83903503 -0.06558228 C24.6615895 -0.07755024 29.48407236 -0.0812636 34.30664062 -0.08007812 C40.47352952 -0.079875 46.63995727 -0.10717358 52.80673695 -0.14162254 C57.56037996 -0.16390583 62.31391227 -0.16791521 67.06760216 -0.16685867 C69.3404976 -0.1692126 71.61339619 -0.17802432 73.88624001 -0.19352341 C77.07161997 -0.21321112 80.2560089 -0.20733377 83.44140625 -0.1953125 C84.3720993 -0.20655151 85.30279236 -0.21779053 86.26168823 -0.22937012 C94.05544393 -0.15496907 99.69042687 2.18228669 106.16479492 6.41552734 C112.46705171 13.00425035 115.01382802 20.67540455 115.09179688 29.62866211 C115.11104973 31.55700645 115.11104973 31.55700645 115.13069153 33.52430725 C115.1388631 34.92684541 115.14630603 36.32938797 115.15307617 37.73193359 C115.1571517 38.44268476 115.16122723 39.15343594 115.16542625 39.88572502 C115.18626281 43.65257345 115.20057125 47.41938578 115.20996094 51.1862793 C115.22098123 55.05056093 115.2553363 58.91425973 115.29513264 62.77833652 C115.32146299 65.77177392 115.32966749 68.76507634 115.33324242 71.75861931 C115.33807129 73.1813949 115.34957781 74.604166 115.36828041 76.02682686 C115.50372189 87.01841567 114.57181469 97.5825329 106.59057617 105.86083984 C95.38819618 115.41811508 78.30138164 113.59193212 64.47338867 113.55615234 C62.61499481 113.5575033 60.75660129 113.5594474 58.89820862 113.56195068 C55.02455239 113.56488096 51.15098908 113.56067188 47.27734375 113.55126953 C42.34304893 113.53986829 37.40897161 113.54645218 32.47468472 113.55841446 C28.64397071 113.56568319 24.81330725 113.56332238 20.98259163 113.55815887 C19.1643477 113.55683662 17.34609898 113.55841939 15.52786064 113.56311798 C-14.38050916 113.62347774 -14.38050916 113.62347774 -23.05786133 105.42724609 C-31.86424201 95.82521705 -31.24244311 85.81749873 -31.25317383 73.36083984 C-31.25639333 72.00234951 -31.2597579 70.64385951 -31.26325989 69.28536987 C-31.26922512 66.44609779 -31.27110245 63.60685603 -31.27050781 60.76757812 C-31.27040628 57.15110872 -31.28406122 53.53483602 -31.30128002 49.91841316 C-31.31246366 47.11464567 -31.31442509 44.3109248 -31.31389809 41.5071373 C-31.31563276 39.53258556 -31.3264306 37.55804837 -31.33744812 35.58352661 C-31.31201675 25.51545184 -30.77869589 16.29911206 -24.08520508 8.29052734 C-16.70822158 1.4306932 -9.83098733 -0.00951202 0 0 Z " fill="#FEC300" transform="translate(33.085205078125,18.70947265625)"/>
<path d="M0 0 C48.18 0 96.36 0 146 0 C146 11.57748428 145.86328629 21.07806162 137.67578125 29.5703125 C126.47340125 39.12758774 109.38658672 37.30140478 95.55859375 37.265625 C93.70019988 37.26697596 91.84180637 37.26892006 89.9834137 37.27142334 C86.10975747 37.27435361 82.23619416 37.27014453 78.36254883 37.26074219 C73.42825401 37.24934095 68.49417669 37.25592483 63.55988979 37.26788712 C59.72917579 37.27515584 55.89851233 37.27279504 52.06779671 37.26763153 C50.24955277 37.26630928 48.43130406 37.26789204 46.61306572 37.27259064 C16.70469591 37.3329504 16.70469591 37.3329504 8.02734375 29.13671875 C-0.28939614 20.0685691 0 12.3078861 0 0 Z " fill="#C60A1C" transform="translate(2,95)"/>
<path d="M0 0 C1.00079086 -0.00671722 2.00158173 -0.01343445 3.03269958 -0.02035522 C6.33329263 -0.03931561 9.63368209 -0.0432585 12.93432617 -0.04541016 C15.23589663 -0.05183956 17.53746628 -0.05856803 19.83903503 -0.06558228 C24.6615895 -0.07755024 29.48407236 -0.0812636 34.30664062 -0.08007812 C40.47352952 -0.079875 46.63995727 -0.10717358 52.80673695 -0.14162254 C57.56037996 -0.16390583 62.31391227 -0.16791521 67.06760216 -0.16685867 C69.3404976 -0.1692126 71.61339619 -0.17802432 73.88624001 -0.19352341 C77.07161997 -0.21321112 80.2560089 -0.20733377 83.44140625 -0.1953125 C84.3720993 -0.20655151 85.30279236 -0.21779053 86.26168823 -0.22937012 C94.05544393 -0.15496907 99.69042687 2.18228669 106.16479492 6.41552734 C114.08028107 14.69080832 115.0447952 23.37050438 114.91479492 34.29052734 C110.62479492 34.29052734 106.33479492 34.29052734 101.91479492 34.29052734 C101.91479492 34.95052734 101.91479492 35.61052734 101.91479492 36.29052734 C62.31479492 36.29052734 22.71479492 36.29052734 -18.08520508 36.29052734 C-18.08520508 36.95052734 -18.08520508 37.61052734 -18.08520508 38.29052734 C-22.37520508 38.29052734 -26.66520508 38.29052734 -31.08520508 38.29052734 C-31.52927594 17.19716125 -31.52927594 17.19716125 -24.08520508 8.29052734 C-16.70822158 1.4306932 -9.83098733 -0.00951202 0 0 Z " fill="#C60A1C" transform="translate(33.085205078125,18.70947265625)"/>
<path d="M0 0 C6.6 0 13.2 0 20 0 C19 4 19 4 18 5 C18.66 5.33 19.32 5.66 20 6 C20.1083667 8.7302389 20.18746694 11.45614543 20.25 14.1875 C20.30027344 15.34088867 20.30027344 15.34088867 20.3515625 16.51757812 C20.42067547 20.54340843 20.32905102 22.48716689 18.09765625 25.96484375 C14.77347337 29.18998208 13.27004842 30 8.5625 30 C4.85697599 28.95985291 3.36833742 27.85250367 1.01000977 24.85839844 C-0.85919042 21.41910624 -0.5226637 17.94027939 -0.3125 14.125 C-0.28994141 13.34125 -0.26738281 12.5575 -0.24414062 11.75 C-0.18568018 9.8324974 -0.09601283 7.9159894 0 6 C0.66 5.67 1.32 5.34 2 5 C1.34 4.34 0.68 3.68 0 3 C0 2.01 0 1.02 0 0 Z " fill="#EA5D6B" transform="translate(45,62)"/>
<path d="M0 0 C4.29 0 8.58 0 13 0 C13 2.97 13 5.94 13 9 C6.565 9.495 6.565 9.495 0 10 C0 7.69 0 5.38 0 3 C-39.6 3 -79.2 3 -120 3 C-120 2.67 -120 2.34 -120 2 C-80.4 2 -40.8 2 0 2 C0 1.34 0 0.68 0 0 Z " fill="#F8AD04" transform="translate(135,53)"/>
<path d="M0 0 C48.18 0 96.36 0 146 0 C146 1.32 146 2.64 146 4 C141.71 4 137.42 4 133 4 C133 3.01 133 2.02 133 1 C93.4 1 53.8 1 13 1 C13 1.99 13 2.98 13 4 C8.71 4 4.42 4 0 4 C0 2.68 0 1.36 0 0 Z " fill="#CD2119" transform="translate(2,95)"/>
<path d="M0 0 C4.29 0 8.58 0 13 0 C13 0.99 13 1.98 13 3 C52.6 3 92.2 3 133 3 C133 2.01 133 1.02 133 0 C137.29 0 141.58 0 146 0 C146 1.32 146 2.64 146 4 C97.82 4 49.64 4 0 4 C0 2.68 0 1.36 0 0 Z " fill="#F8AD04" transform="translate(2,91)"/>
<path d="M0 0 C6.6 0 13.2 0 20 0 C19 4 19 4 17.25 5.25 C15 6 15 6 10 6 C10 9.63 10 13.26 10 17 C6.7 17 3.4 17 0 17 C0 13.37 0 9.74 0 6 C0.66 5.67 1.32 5.34 2 5 C1.34 4.34 0.68 3.68 0 3 C0 2.01 0 1.02 0 0 Z " fill="#DF3845" transform="translate(45,62)"/>
<path d="M0 0 C1.32 0 2.64 0 4 0 C4 7.59 4 15.18 4 23 C4.99 23 5.98 23 7 23 C7 24.32 7 25.64 7 27 C3.7 27 0.4 27 -3 27 C-3 25.68 -3 24.36 -3 23 C-2.01 23 -1.02 23 0 23 C0 15.41 0 7.82 0 0 Z " fill="#A3A58A" transform="translate(68,65)"/>
<path d="M0 0 C1.32 0 2.64 0 4 0 C4 7.59 4 15.18 4 23 C4.99 23 5.98 23 7 23 C7 24.32 7 25.64 7 27 C3.7 27 0.4 27 -3 27 C-3 25.68 -3 24.36 -3 23 C-2.01 23 -1.02 23 0 23 C0 15.41 0 7.82 0 0 Z " fill="#A3A58A" transform="translate(38,65)"/>
<path d="M0 0 C4.29 0.33 8.58 0.66 13 1 C13 3.97 13 6.94 13 10 C8.71 10 4.42 10 0 10 C0 6.7 0 3.4 0 0 Z " fill="#D12D16" transform="translate(2,47)"/>
<path d="M0 0 C4.29 0 8.58 0 13 0 C13 2.97 13 5.94 13 9 C6.565 9.495 6.565 9.495 0 10 C0 6.7 0 3.4 0 0 Z " fill="#F49F05" transform="translate(135,53)"/>
<path d="M0 0 C3.3 0 6.6 0 10 0 C10 3.3 10 6.6 10 10 C6.7 10 3.4 10 0 10 C0 6.7 0 3.4 0 0 Z " fill="#F4A0A9" transform="translate(55,68)"/>
<path d="M0 0 C6.6 0 13.2 0 20 0 C19 4 19 4 17.21484375 5.234375 C12.560335 6.84334099 7.71892525 6.42973131 3 5.25 C1 4 1 4 0 0 Z " fill="#EB6166" transform="translate(45,62)"/>
<path d="M0 0 C0 0.66 0 1.32 0 2 C-3.3453879 3.1151293 -5.91758812 3.13299072 -9.4375 3.125 C-10.57058594 3.12757812 -11.70367187 3.13015625 -12.87109375 3.1328125 C-15.45221183 3.02325193 -17.54944405 2.75864877 -20 2 C-19.67 1.01 -19.34 0.02 -19 -1 C-13.24437152 -3.2176475 -5.39974218 -2.8798625 0 0 Z " fill="#FEAC2F" transform="translate(65,60)"/>
<path d="M0 0 C0 1.98 0 3.96 0 6 C-4.29 6 -8.58 6 -13 6 C-13 4.35 -13 2.7 -13 1 C-8.62426048 0.40667939 -4.42471556 -0.13827236 0 0 Z " fill="#D12C17" transform="translate(148,47)"/>
<path d="M0 0 C4.29 0 8.58 0 13 0 C13 1.65 13 3.3 13 5 C6.565 5.495 6.565 5.495 0 6 C0 4.02 0 2.04 0 0 Z " fill="#F49F05" transform="translate(2,57)"/>
<path d="M0 0 C4.29 0 8.58 0 13 0 C13 1.32 13 2.64 13 4 C8.71 4 4.42 4 0 4 C0 2.68 0 1.36 0 0 Z " fill="#DA4B12" transform="translate(135,95)"/>
<path d="M0 0 C4.29 0 8.58 0 13 0 C13 1.32 13 2.64 13 4 C8.71 4 4.42 4 0 4 C0 2.68 0 1.36 0 0 Z " fill="#DA4B12" transform="translate(2,95)"/>
<path d="M0 0 C4.29 0 8.58 0 13 0 C13 1.32 13 2.64 13 4 C8.71 4 4.42 4 0 4 C0 2.68 0 1.36 0 0 Z " fill="#EB8209" transform="translate(135,91)"/>
<path d="M0 0 C4.29 0 8.58 0 13 0 C13 1.32 13 2.64 13 4 C8.71 4 4.42 4 0 4 C0 2.68 0 1.36 0 0 Z " fill="#EB8209" transform="translate(2,91)"/>
<path d="M0 0 C4.29 0 8.58 0 13 0 C13 1.32 13 2.64 13 4 C8.71 4 4.42 4 0 4 C0 2.68 0 1.36 0 0 Z " fill="#F8AD03" transform="translate(135,87)"/>
<path d="M0 0 C4.29 0 8.58 0 13 0 C13 1.32 13 2.64 13 4 C8.71 4 4.42 4 0 4 C0 2.68 0 1.36 0 0 Z " fill="#F8AD03" transform="translate(2,87)"/>
<path d="M0 0 C4.29 0 8.58 0 13 0 C13 1.32 13 2.64 13 4 C8.71 4 4.42 4 0 4 C0 2.68 0 1.36 0 0 Z " fill="#E2670E" transform="translate(135,53)"/>
<path d="M0 0 C4.29 0 8.58 0 13 0 C13 1.32 13 2.64 13 4 C8.71 4 4.42 4 0 4 C0 2.68 0 1.36 0 0 Z " fill="#E2670E" transform="translate(2,53)"/>
<path d="M0 0 C4.29 0 8.58 0 13 0 C13 0.99 13 1.98 13 3 C6.565 3.495 6.565 3.495 0 4 C0 2.68 0 1.36 0 0 Z " fill="#CE2418" transform="translate(135,99)"/>
<path d="M0 0 C4.29 0 8.58 0 13 0 C13 0.99 13 1.98 13 3 C6.565 3.495 6.565 3.495 0 4 C0 2.68 0 1.36 0 0 Z " fill="#CE2418" transform="translate(2,99)"/>
<path d="M0 0 C3.3 0 6.6 0 10 0 C10 0.99 10 1.98 10 3 C6.7 3 3.4 3 0 3 C0 2.01 0 1.02 0 0 Z " fill="#797F6E" transform="translate(65,89)"/>
<path d="M0 0 C3.3 0 6.6 0 10 0 C10 0.99 10 1.98 10 3 C6.7 3 3.4 3 0 3 C0 2.01 0 1.02 0 0 Z " fill="#797F6E" transform="translate(35,89)"/>
</svg>
